<?xml version="1.0" encoding="utf-8"?>
<!-- Generator: Adobe Illustrator 23.0.2, SVG Export Plug-In . SVG Version: 6.00 Build 0)  -->
<svg version="1.1" id="Layer_1" xmlns="http://www.w3.org/2000/svg" xmlns:xlink="http://www.w3.org/1999/xlink" x="0px" y="0px"
	 viewBox="0 0 185.53 82" style="enable-background:new 0 0 185.53 82;" xml:space="preserve">
<style type="text/css">
	.st0{fill:#29292b;}
</style>
<g>
	<g>
		<g>
			<path class="st0" d="M46.52,47.49c5.03,0,9.1-4.07,9.1-9.1c0-5.03-4.07-9.1-9.1-9.1c-5.03,0-9.1,4.07-9.1,9.1
				C37.42,43.41,41.49,47.49,46.52,47.49 M46.52,34.32c2.25,0,4.07,1.82,4.07,4.07h-8.13C42.45,36.14,44.27,34.32,46.52,34.32"/>
		</g>
		<g>
			<path class="st0" d="M12.69,38.39c0,5.03,4.07,9.1,9.1,9.1c5.03,0,9.1-4.07,9.1-9.1c0-5.03-4.07-9.1-9.1-9.1
				C16.76,29.29,12.69,33.36,12.69,38.39 M25.85,38.39h-8.13c0-2.25,1.82-4.07,4.07-4.07C24.03,34.32,25.85,36.14,25.85,38.39"/>
		</g>
		<g>
			<path class="st0" d="M61.82,21.59c-0.45,0.35-1.01,0.75-1.59,1.01c-1.29,0.6-2.81,0.72-2.81,0.72l-0.3-0.23
				c0,0,0.97-0.23,2.19-1.08c0.03-0.02,0.05-0.04,0.08-0.06c0.07-0.05,0.15-0.11,0.22-0.16c0.09-0.07,0.17-0.14,0.25-0.21
				c0.03-0.03,0.06-0.05,0.09-0.08c0.14-0.13,0.28-0.26,0.41-0.4c0.2-0.21,0.39-0.43,0.57-0.68c2.04-2.84,1.73-6.1,0.75-8.95
				c-1.23,1.62-2.96,3.08-5.29,2.68c-1.49-0.25-3.36-1.49-5.96-2.87c-3.81-2.11-8.09-3.49-12.62-3.98
				c-0.21-0.03-0.43-0.05-0.64-0.07c-0.22-0.02-0.45-0.04-0.67-0.05c-0.5-0.04-1.03-0.06-1.56-0.07c-0.09,0-0.17-0.01-0.26-0.01
				c-0.17,0-0.31-0.01-0.41-0.01v0h-0.1h-0.09v0c-0.08,0-0.19,0-0.32,0.01c-6.11,0.07-11.84,1.77-16.75,4.68
				c-2.14,1.17-3.74,2.16-5.05,2.38c-2.32,0.39-4.05-1.06-5.29-2.68c-0.98,2.82-1.29,6.05,0.7,8.88l-0.01,0.02
				c0.35,0.5,0.79,1,1.34,1.42c1.37,1.03,2.5,1.3,2.5,1.3l-0.3,0.23c0,0-1.52-0.11-2.81-0.72c-0.58-0.27-1.15-0.67-1.6-1.02
				c-3.78,5.44-6,12.06-6,19.19c0,9.83,4.22,18.68,10.95,24.83c2.56-0.27,6.28-0.75,10.36-1.56c4.6-0.91,8.1-1.78,10.55-2.45
				c-5.82-1.67-23.65-8.05-23.65-23.66c0-7.03,5.7-12.73,12.73-12.73c8.44,0,12.73,5.92,12.73,5.92s4.47-5.92,12.73-5.92
				c7.03,0,12.73,5.7,12.73,12.73c0,13.19-12.72,19.79-20.18,22.53c-0.24,0.1-0.54,0.21-0.9,0.33c-3.93,1.33-10.19,3.27-16.74,4.62
				c-3.24,0.67-6.37,1.24-8.66,1.65c1.67,1.33,3.46,2.52,5.36,3.52c0-0.01,0-0.01,0-0.01l0.01,0.02c0.99,0.52,2.01,0.99,3.06,1.42
				c0.01,0,0.03,0,0.04-0.01c1.99-0.5,6.49-1.95,6.49-1.95s-1.44,1.75-3.04,3.15c1.61,0.45,3.26,0.78,4.95,0.99
				c2.07-0.99,5.5-3.36,5.5-3.36s-1.32,1.92-2.77,3.59c0.47,0.02,0.94,0.03,1.42,0.03c1.43,0,2.84-0.09,4.23-0.26
				c1.87-1.42,4.07-3.35,4.07-3.35s-0.75,1.45-1.72,2.97c15.44-3.06,27.09-16.68,27.09-33.02C67.82,33.64,65.6,27.03,61.82,21.59"/>
		</g>
	</g>
	<g>
		<g>
			<path class="st0" d="M115.38,70.19c-0.43,0.54-1.1,0.88-1.84,0.88c-1.3,0-2.37-1.06-2.37-2.37c0-1.3,1.06-2.37,2.37-2.37
				c0.75,0,1.41,0.35,1.84,0.89l1.15-1.62c-0.78-0.75-1.83-1.21-2.99-1.21c-2.38,0-4.31,1.93-4.31,4.31s1.93,4.31,4.31,4.31
				c1.16,0,2.22-0.46,2.99-1.21L115.38,70.19z"/>
			<g>
				<path class="st0" d="M121.1,64.4c-2.38,0-4.31,1.93-4.31,4.31s1.93,4.31,4.31,4.31s4.31-1.93,4.31-4.31S123.47,64.4,121.1,64.4z
					 M121.1,71.07c-1.3,0-2.37-1.06-2.37-2.37c0-1.3,1.06-2.37,2.37-2.37c1.3,0,2.37,1.06,2.37,2.37
					C123.46,70.01,122.4,71.07,121.1,71.07z"/>
			</g>
			<path class="st0" d="M126.37,72.8h1.94v-2.42h2.74v-1.94h-2.74v-1.89h2.74v-1.94h-4.68V72.8z"/>
			<path class="st0" d="M132.29,72.8h1.94v-2.42h2.74v-1.94h-2.74v-1.89h2.74v-1.94h-4.68V72.8z"/>
			<g>
				<path class="st0" d="M138.3,72.8h6.04v-1.94h-4.1V69.7h4.1v-1.94h-4.1v-1.2h4.1v-1.94h-6.04V72.8z"/>
			</g>
			<path class="st0" d="M145.65,72.8h6.04v-1.94h-4.1V69.7h4.1v-1.94h-4.1v-1.2h4.1v-1.94h-6.04V72.8z"/>
		</g>
		<g>
			<g>
				<path class="st0" d="M97.84,38.95h13.22v-4.76h-8.46v-18.7h-4.76V38.95z"/>
			</g>
			<g>
				<path class="st0" d="M113.47,38.92h14.26v-4.76h-9.5v-4.51h9.28v-4.76h-9.28v-4.62h9.5v-4.76h-14.26V38.92z"/>
			</g>
			<path class="st0" d="M130.23,38.92h14.26v-4.76h-9.5v-4.51h9.28v-4.76h-9.28v-4.62h9.5v-4.76h-14.26V38.92z"/>
			<path class="st0" d="M154.56,15.49h-5.38v0.01h-2.26v23.42h4.77v-4.47h2.87c5.22,0,9.47-4.25,9.47-9.48
				S159.79,15.49,154.56,15.49z M154.56,29.69h-2.87v-9.43h2.87c2.6,0,4.72,2.12,4.72,4.72S157.16,29.69,154.56,29.69z"/>
			<g>
				<g>
					<path class="st0" d="M105.61,41.29c-5.83,0-10.57,4.74-10.57,10.57s4.74,10.57,10.57,10.57s10.57-4.74,10.57-10.57
						S111.44,41.29,105.61,41.29z M105.61,57.66c-3.2,0-5.8-2.6-5.8-5.8s2.6-5.8,5.8-5.8s5.8,2.6,5.8,5.8S108.81,57.66,105.61,57.66
						z"/>
				</g>
				<g>
					<path class="st0" d="M146.93,61.62H162v-4.76h-10.31V41.91h-4.76V61.62z"/>
				</g>
				<g>
					<path class="st0" d="M133.48,61.62h3.43c0,0,2.27-3.95,4.45-9.73c1.7-4.5,2.51-8.07,2.86-9.98h-4.85
						c-0.38,1.85-1.23,5.29-2.57,8.85c-0.26,0.7-1.08,2.77-1.08,2.77l-3.05-11.62H128l-3.05,11.62c0,0-0.82-2.08-1.08-2.77
						c-1.33-3.52-2.36-6.98-2.91-8.85h-4.95c0.52,1.9,1.57,5.43,3.29,9.98c2.27,6.02,4.45,9.73,4.45,9.73h3.43l3.15-10.51
						L133.48,61.62z"/>
				</g>
			</g>
			<path class="st0" d="M180.06,15.49c-0.86,5.14-2.79,10.32-5.52,14.71l-5.13-14.71h-5.04l6.74,19.32
				c-4.15,4.6-9.11,7.09-14.28,7.09l-2.36,0.01v4.74h2.36v0.01c7.98,0,15.42-4.5,20.93-12.66c3.63-5.38,6.14-11.99,7.12-18.51
				H180.06z"/>
			<path class="st0" d="M93.85,33.53c-1.26-1.99-3.51-3.35-5.68-4.66c-3.36-2.03-5.4-3.42-5.4-5.64c0-2,1.63-3.62,3.62-3.62
				c1.87,0,3.41,1.42,3.6,3.24l4.64-1.14c-0.72-3.9-4.13-6.87-8.24-6.87c-4.62,0-8.39,3.76-8.39,8.38c0,5.07,4.27,7.65,7.7,9.72
				c1.7,1.03,3.46,2.09,4.12,3.13c1.04,1.64,0.35,3.28,0.01,3.91c-0.64,1.16-2,2.39-3.92,2.39c-2.04,0-3.53-0.68-4.57-2.08
				c-0.44-0.59-0.71-1.21-0.88-1.67l-4.41,1.86c1.12,2.96,4.03,6.66,9.86,6.66c3.34,0,6.44-1.86,8.09-4.86
				C95.57,39.44,95.51,36.17,93.85,33.53z"/>
		</g>
	</g>
</g>
</svg>
